# xmcd
#
# Track frame offsets:
#	150
#	10372
#	21122
#	32483
#	46081
#	57728
#	70650
#	81135
#	94087
#	104384
#	116504
#	128099
#	139717
#	151529
#	166975
#	184246
#	197293
#	209713
#	222733
#	236263
#	250266
#	262328
#	275077
#	288533
#	303796
#	315691
#	325516
#	338821
#
# Disc length: 4672 seconds
#
# Revision: 1
# Processed by: cddbd v1.5.2PL0 Copyright (c) Steve Scherf et al.
# Submitted via: audiograbber 1.83.01
#
DISCID=93123e1c
DTITLE=Ella Washington - He Called Me Baby
DYEAR=2008
DGENRE=Soul
TTITLE0=I Can't Afford To Lose Him
TTITLE1=Starving For Love
TTITLE2=I Done Made It Up In My Mind
TTITLE3=He Called Me Baby
TTITLE4=You're Gonna Cry, Cry, Cry
TTITLE5=Stop Giving Your Man Away
TTITLE6=The Affair
TTITLE7=I Want To Walk Through This Life With You
TTITLE8=Fragile (Handle With Care)
TTITLE9=Doing The Best I Can
TTITLE10=Sweeter And Sweeter (Ray, Ray, Ray)
TTITLE11=All The Time
TTITLE12=This Bitter Earth
TTITLE13=Sit Down And Cry
TTITLE14=He'll Be Back
TTITLE15=I Don't Care About Your Past
TTITLE16=It Must Be Love
TTITLE17=Too Weak To Fight
TTITLE18=If Time Could Stand Still
TTITLE19=Nobody But Me
TTITLE20=I'm Losing The Feeling
TTITLE21=Mission (That's Impossible)
TTITLE22=What A Fool I've Been (For Loving You)
TTITLE23=Deeper
TTITLE24=I've Got To Have You (It's All Over)
TTITLE25=Pride
TTITLE26=We Paid The Price
TTITLE27=You Got It
EXTD=
EXTT0=
EXTT1=
EXTT2=
EXTT3=
EXTT4=
EXTT5=
EXTT6=
EXTT7=
EXTT8=
EXTT9=
EXTT10=
EXTT11=
EXTT12=
EXTT13=
EXTT14=
EXTT15=
EXTT16=
EXTT17=
EXTT18=
EXTT19=
EXTT20=
EXTT21=
EXTT22=
EXTT23=
EXTT24=
EXTT25=
EXTT26=
EXTT27=
PLAYORDER=
